<?xml version="1.0"?>
<svg xmlns="http://www.w3.org/2000/svg" id="Flat" viewBox="0 0 64 64" width="512" height="512"><rect x="19" y="3" width="2" height="11" style="fill:#ff6536"/><rect x="23" y="3" width="2" height="9" style="fill:#ff6536"/><polygon points="27 3 27 12 29 12 31 12 31 3 29 3 27 3" style="fill:#ff6536"/><rect x="33" y="3" width="2" height="9" style="fill:#ff6536"/><polygon points="37 3 37 12 39 12 41 12 41 3 39 3 37 3" style="fill:#ff6536"/><rect x="43" y="3" width="2" height="11" style="fill:#ff6536"/><rect x="47" y="3" width="2" height="11" style="fill:#ff6536"/><rect x="15" y="3" width="2" height="11" style="fill:#ff6536"/><rect x="30" y="52" width="4" height="9" style="fill:#b3b3b3"/><path d="M30,57h4a13.658,13.658,0,0,0,4-9.657V37.18a10,10,0,0,1,5.528-8.944l3.155-1.578A6,6,0,0,0,50,21.292V19a2,2,0,0,0-2-2H16a2,2,0,0,0-2,2v2.292a6,6,0,0,0,3.317,5.366l3.155,1.578A10,10,0,0,1,26,37.18V47.343A13.658,13.658,0,0,0,30,57Z" style="fill:#e6e6e6"/><rect x="14" y="20" width="36" height="2" style="fill:#b3b3b3"/></svg>
